<!DOCTYPE svg PUBLIC "-//W3C//DTD SVG 1.1//EN" "http://www.w3.org/Graphics/SVG/1.1/DTD/svg11.dtd">
<!-- Uploaded to: SVG Repo, www.svgrepo.com, Transformed by: SVG Repo Mixer Tools -->
<svg version="1.1" id="Uploaded to svgrepo.com" xmlns="http://www.w3.org/2000/svg" xmlns:xlink="http://www.w3.org/1999/xlink" width="800px" height="800px" viewBox="0 0 32 32" xml:space="preserve" fill="#000000">
<g id="SVGRepo_bgCarrier" stroke-width="0"/>
<g id="SVGRepo_tracerCarrier" stroke-linecap="round" stroke-linejoin="round"/>
<g id="SVGRepo_iconCarrier"> <style type="text/css"> .stone_een{fill:#ff0000;} </style> <path class="stone_een" d="M14,18.415V21H8v-2.585c0-0.986,0.48-1.903,1.288-2.464l0.463-0.231C10.132,15.896,10.553,16,11,16 s0.868-0.104,1.249-0.28l0.463,0.231C13.52,16.512,14,17.429,14,18.415z M11,15c1.103,0,2-0.897,2-2c0-1.103-0.897-2-2-2 s-2,0.897-2,2C9,14.103,9.897,15,11,15z M31,8v16c0,1.657-1.343,3-3,3H4c-1.657,0-3-1.343-3-3V8c0-1.657,1.343-3,3-3h24 C29.657,5,31,6.343,31,8z M15,18.415c0-1.337-0.668-2.586-1.781-3.328l-0.049-0.024C13.681,14.524,14,13.801,14,13 c0-1.657-1.343-3-3-3s-3,1.343-3,3c0,0.801,0.319,1.524,0.83,2.062l-0.049,0.024C7.668,15.829,7,17.078,7,18.415V21 c0,0.552,0.448,1,1,1h6c0.552,0,1-0.448,1-1V18.415z M25,18.5c0-0.276-0.224-0.5-0.5-0.5h-6c-0.276,0-0.5,0.224-0.5,0.5 s0.224,0.5,0.5,0.5h6C24.776,19,25,18.776,25,18.5z M25,16.5c0-0.276-0.224-0.5-0.5-0.5h-6c-0.276,0-0.5,0.224-0.5,0.5 s0.224,0.5,0.5,0.5h6C24.776,17,25,16.776,25,16.5z M25,14.5c0-0.276-0.224-0.5-0.5-0.5h-6c-0.276,0-0.5,0.224-0.5,0.5 s0.224,0.5,0.5,0.5h6C24.776,15,25,14.776,25,14.5z"/> </g>
</svg>